<svg width="212" height="189" viewBox="0 0 212 189" fill="none" xmlns="http://www.w3.org/2000/svg">
<path d="M200.77 1L126.57 56.41L140.85 23.39L200.77 1Z" fill="#E17726" stroke="#E17726" stroke-width="0.25" stroke-linecap="round" stroke-linejoin="round"/>
<path d="M10.55 1L83.95 56.98L70.47 23.39L10.55 1Z" fill="#E27625" stroke="#E27625" stroke-width="0.25" stroke-linecap="round" stroke-linejoin="round"/>
<path d="M171.16 136.84L149.39 169.42L195.61 181.94L208.73 137.62L171.16 136.84Z" fill="#E27625" stroke="#E27625" stroke-width="0.25" stroke-linecap="round" stroke-linejoin="round"/>
<path d="M2.67969 137.62L15.7097 181.94L61.9297 169.42L40.1597 136.84L2.67969 137.62Z" fill="#E27625" stroke="#E27625" stroke-width="0.25" stroke-linecap="round" stroke-linejoin="round"/>
<path d="M59.12 81.91L47.03 100.17L93 101.78L91.58 52.82L59.12 81.91Z" fill="#E27625" stroke="#E27625" stroke-width="0.25" stroke-linecap="round" stroke-linejoin="round"/>
<path d="M152.19 81.91L119.27 52.25L118.14 101.78L164.29 100.17L152.19 81.91Z" fill="#E27625" stroke="#E27625" stroke-width="0.25" stroke-linecap="round" stroke-linejoin="round"/>
<path d="M61.93 169.42L89.83 155.9L65.7 137.97L61.93 169.42Z" fill="#E27625" stroke="#E27625" stroke-width="0.25" stroke-linecap="round" stroke-linejoin="round"/>
<path d="M121.48 155.9L149.39 169.42L145.61 137.97L121.48 155.9Z" fill="#E27625" stroke="#E27625" stroke-width="0.25" stroke-linecap="round" stroke-linejoin="round"/>
</svg>